<svg width="9" height="8" viewBox="0 0 9 8" fill="none" xmlns="http://www.w3.org/2000/svg">
<path d="M4.56884 7.98773C3.89978 7.98773 3.28877 7.82461 2.73583 7.49837C2.18289 7.16661 1.74053 6.72425 1.40877 6.17131C1.08253 5.61837 0.919415 5.00737 0.919415 4.3383C0.919415 3.66372 1.08253 3.05271 1.40877 2.5053C1.74053 1.95236 2.18289 1.51277 2.73583 1.18653C3.28877 0.854766 3.89978 0.688884 4.56884 0.688884C5.24343 0.688884 5.85443 0.854766 6.40184 1.18653C6.95478 1.51277 7.39437 1.95236 7.72061 2.5053C8.05237 3.05271 8.21826 3.66372 8.21826 4.3383C8.21826 5.00737 8.05237 5.61837 7.72061 6.17131C7.39437 6.72425 6.95478 7.16661 6.40184 7.49837C5.85443 7.82461 5.24343 7.98773 4.56884 7.98773Z" fill="black"/>
</svg>
