<svg width="29" height="29" viewBox="0 0 29 29" fill="none" xmlns="http://www.w3.org/2000/svg">
<path fill-rule="evenodd" clip-rule="evenodd" d="M29 7.84861C29 3.51724 25.4828 0 21.1514 0H7.84862C3.51725 0 0 3.51724 0 7.84861V21.1514C0 25.4827 3.51725 29 7.84862 29H21.1514C25.4828 29 29 25.4827 29 21.1514V7.84861ZM26.6055 7.84861V21.1514C26.6055 24.1618 24.1618 26.6055 21.1514 26.6055H7.84862C4.83821 26.6055 2.3945 24.1618 2.3945 21.1514V7.84861C2.3945 4.8382 4.83821 2.39448 7.84862 2.39448H21.1514C24.1618 2.39448 26.6055 4.8382 26.6055 7.84861ZM21.005 13.4863C20.586 10.6542 18.3458 8.41398 15.5137 7.99495C15.1971 7.94706 14.8778 7.92445 14.5572 7.92445C10.9814 7.92445 8.03885 10.867 8.03885 14.4428C8.03885 18.0186 10.9814 20.9611 14.5572 20.9611C18.133 20.9611 21.0756 18.0186 21.0756 14.4428C21.0756 14.1222 21.0529 13.8029 21.005 13.4863ZM18.6372 13.8375C18.6664 14.0384 18.6811 14.2406 18.6811 14.4428C18.6811 16.7043 16.82 18.5667 14.5572 18.5667C12.2957 18.5667 10.4334 16.7043 10.4334 14.4428C10.4334 12.18 12.2957 10.3189 14.5572 10.3189C14.7594 10.3189 14.9616 10.3336 15.1625 10.3628C16.9544 10.6289 18.3711 12.0456 18.6372 13.8375ZM21.8165 5.98624C22.4777 5.98624 23.0138 6.52233 23.0138 7.18348C23.0138 7.84462 22.4777 8.38072 21.8165 8.38072C21.1554 8.38072 20.6193 7.84462 20.6193 7.18348C20.6193 6.52233 21.1554 5.98624 21.8165 5.98624Z" fill="#FFFDFD"/>
</svg>
