<svg width="29" height="29" viewBox="0 0 29 29" fill="none" xmlns="http://www.w3.org/2000/svg">
<path d="M14.4997 0C6.50468 0 0 6.50456 0 14.4997C0 22.4952 6.50468 29 14.4997 29C22.4953 29 29 22.4952 29 14.4997C28.9997 6.50456 22.4951 0 14.4997 0ZM22.217 10.7181C21.8325 11.2938 21.3544 11.8011 20.8025 12.219C20.8048 12.3032 20.8064 12.3873 20.8064 12.4714C20.8064 16.6999 17.5887 21.0737 12.204 21.0737C10.5607 21.0745 8.95186 20.6033 7.56868 19.7161C7.51937 19.6847 7.48222 19.6374 7.46331 19.582C7.4444 19.5266 7.44486 19.4665 7.46461 19.4114C7.48383 19.3561 7.52145 19.3089 7.5712 19.2779C7.62095 19.2469 7.67982 19.2339 7.73799 19.2411C7.96503 19.2672 8.19 19.2802 8.40695 19.2802C9.46319 19.2802 10.4697 18.9962 11.3533 18.4536C10.8212 18.3251 10.331 18.0619 9.93014 17.6891C9.52924 17.3164 9.23104 16.8467 9.06425 16.3253C9.05059 16.2825 9.04828 16.2369 9.05754 16.1929C9.0668 16.149 9.0873 16.1082 9.11706 16.0745C9.14682 16.0408 9.18491 16.0154 9.22752 16.001C9.27013 15.9866 9.31577 15.9837 9.35989 15.9924C9.40856 16.0018 9.45749 16.0098 9.50616 16.0165C8.60706 15.4436 8.0238 14.4363 8.0238 13.3211V13.2841C8.02382 13.239 8.0356 13.1947 8.05798 13.1556C8.08035 13.1165 8.11254 13.0839 8.15137 13.0611C8.1902 13.0382 8.23432 13.0259 8.27937 13.0253C8.32442 13.0248 8.36884 13.0359 8.40824 13.0578C8.52085 13.1202 8.63761 13.1743 8.75747 13.2199C8.29742 12.6513 8.04679 11.9418 8.04762 11.2104C8.04762 10.6466 8.19699 10.0916 8.47943 9.60566C8.50045 9.56944 8.52995 9.53885 8.56538 9.51653C8.60082 9.49421 8.64114 9.48083 8.68289 9.47752C8.72464 9.47421 8.76657 9.48108 8.80508 9.49753C8.84359 9.51399 8.87753 9.53955 8.904 9.572C10.281 11.2604 12.2827 12.3226 14.4358 12.5183C14.4205 12.39 14.4129 12.261 14.413 12.1318C14.413 10.3722 15.8449 8.9406 17.6048 8.9406C18.435 8.9406 19.2383 9.26808 19.8309 9.84331C20.41 9.71438 20.965 9.49427 21.4751 9.1912C21.4878 9.15125 21.51 9.115 21.5399 9.08555C21.5697 9.05609 21.6062 9.03433 21.6463 9.02212C21.6864 9.00991 21.7289 9.00762 21.7701 9.01545C21.8113 9.02328 21.8499 9.04099 21.8828 9.06707C21.9156 9.09314 21.9416 9.1268 21.9585 9.16515C21.9755 9.20349 21.9829 9.24538 21.98 9.2872C21.9772 9.32903 21.9643 9.36954 21.9423 9.40526C21.9204 9.44098 21.8901 9.47084 21.8541 9.49227C21.7273 9.88972 21.5232 10.2582 21.2535 10.5765C21.4728 10.5102 21.6879 10.4303 21.8973 10.3372C21.9486 10.3146 22.0059 10.3092 22.0605 10.3219C22.1151 10.3346 22.1641 10.3647 22.2002 10.4076C22.2362 10.4505 22.2573 10.504 22.2604 10.56C22.2634 10.616 22.2482 10.6715 22.217 10.7181Z" fill="#FFFDFD"/>
</svg>
